/* XPM */
static char * skytt3_xpm[] = {
"85 101 17 1",
" 	c None",
".	c #D6D6D6",
"+	c #050401",
"@	c #F6D1DF",
"#	c #9296B9",
"$	c #99796C",
"%	c #381806",
"&	c #D6B9C1",
"*	c #484152",
"=	c #658116",
"-	c #C0938D",
";	c #6A6A8D",
">	c #725000",
",	c #FFFFFF",
"'	c #C80000",
")	c #F8C3DE",
"!	c #ABCFEF",
".....................................................................................",
".....................................................................................",
".....................................................................................",
"...............................................................++@...................",
"..............................................................++++...................",
"............................................................#++$%+&..................",
"...........................................................*+%==%+...................",
".........................................................&++====++-..................",
"........................................................;+%=====++%+$................",
"..........................................#-#@.........++======%++..%+...............",
".......................................#*+++++++*-....+++%%%%%++++...&+$.............",
"......................................*++>====>%++%@@++%*+++++++*.....&+.............",
"....................................#++========%%+++++>,,*+&,,;+%%-..................",
"...................................&+======>%++%%''%'+$,@+,,,&+*-;++@................",
"..............................;%$@.+>====%+++%''''++'%>,,+),,+>,,,,*+................",
"..............................&#*++%===%++'''''+++$--&++-++>$+>,,,,,+%...............",
".............................;%;;+%===++'''''++%-,,++;,*++$;*;++%$),*+@..............",
".................................+==>+%''''++%-,,,)+#%,,;+$*%),*%+>,@+$..............",
"................................$+$++'''''++),,,),#+,,+,#+%$;+>,,,,)@+$..............",
"................................*%=+'''''+;*-,))),#+&,+*+),,,@+$,)),,+&..............",
"................................+++''''++%)$>$)))),+#,,++,,,,,+-,)),#+...............",
"...............................!++''''++-***;%),)),*$,,%;+>-*+>,,,,,%>...............",
"...............................;+'''''+>)----$)))),*>,!+*!+++&,)$-&%+;...............",
"...............................;%%++++*%+%%%++),)),;*,,++,,;++++++++++*..............",
"...............................;+%,-+>))))),,,,))),)%,,#+,,,,+$),,#+%++%.............",
"...............................#+,,,#+++++++++,,),),+,,,%,,,+&,,),,*++++@............",
"...............................*$,+-,,,,,,,,&&,),)),*%,,+,!+-,)))),@+=++.............",
"...............................+&,++%,,++>%$,,))))),,+,,+++@,)),)),,+=+-.............",
"...............................+),%>,),&;%+*,)),),)),;+%+$,,))))),),%+%..............",
"...............................+),#-,,)@,,,,))))))),),*%,,))))),))),%;...............",
"...............................+),,,%$,))))),)))),)))),,,,),)),),)),+&...............",
"...............................+%,,*++&,),,,)))))))))),++&,),)),),,,+@...............",
"................................%++++=,),-$),),))))),,,#$),,))),)),;+................",
".................................!..*+),;+++&,,)),)),;>,,,,))))),,-+.................",
"...................................#+++)*+%%+,),,),,@++++-,,,,,,,$+-.................",
"...................................+''++$&,,*+++>,&*+%==%+++>$>%++@..................",
"...................................+''%++++$)$;%++++=======%+++%$....................",
"...................................+''+'++++++++%%=========++........................",
".................................@++''+'+++'+%==>>======%++;.........................",
".................................+>++'+'+%+'++%=%%>===%++*...........................",
"................................%+$%++'+''+''%+==++%+++#.............................",
"...............................#+===%+'+''++''%+%+++;@...............................",
"...............................+====>+'+''+++'++%*&..................................",
"..............................+%==>==>++'+++++*......................................",
".............................%+=======>+++>%++.......................................",
"............................;++++>==+>======>+.......................................",
"............................+%%%+++%+%==>===%+.......................................",
"...........................%+%%%'+++++=>==>=%+.......................................",
"..........................;+=+'+++>+++===>==+%.......................................",
"..........................+==+++'%++===>=>>=+*.......................................",
".........................+%==%++'++%========+&.......................................",
"........................#+====>++%+=>=>=>>%=+*.......................................",
"........................+====*=>%*+===+++++%=++@.....................................",
".......................;+========%+===+%,,,%==++.....................................",
".......................+%===>====+%===>+,+%*+>+......................................",
"......................#+==>=====>+==>==+*+++%+#......................................",
"......................+%===*=*==%+==>==%%!*,;+*......................................",
".....................#+=========%+=>===>+#$*+%+&.....................................",
".....................;+=========%+===>==++++%=++.....................................",
"...@%+***;;;$$#&#&...#+=========%+=++++=>=%+===+-....................................",
"...*+%+%++++++++++++..*+%=======+++%-&++==%+%==>+....................................",
"...*%'+'''''''''''%+-.++++>=====>++,,,,+>=+++===+%...................................",
"...*%'%'>''>''+%'''+@&%,++++++++++),)),;+=+%%+===+$..................................",
"...%%'%'%%%%%'''>''+*%$,,---$;;*%*,),,,#+=+%=+==>++..................................",
"...*>'+%%%%%%+++'''%++&,,,,,,,,,,,),->>+%=++=+%>+*...................................",
"...*%'%%%'''''>'>'>''+-,))),)))))),,+++%==++==++++...................................",
"...*+'%''>%%%''''''>'+$,,),),),)),,)++++%%+===+%$+*..................................",
"...*%'%%'%%%%>''>''''++,,,,,)),,))),+++++++%=====%+..................................",
"...;+'%%'''''''''++++%+>))&&,,)))),&+''%+++++++%==++.................................",
"...#+'%%''%''>%++%;!...++++++),))),#+'''''%%+++++%+*.................................",
"....+''+'''%++*&........##@!*+>,)),$++%>''''''>%+++%*-...............................",
"....&+%++++*&................+*,)),*+%+++%%''''''>%++++%$............................",
".....$++;$..................++),)),%+===%++++>'''''''%++++%-@........................",
"...........................;++$,,,,+%=>==+%=+++%%'''''''%+++++;&.....................",
"..........................$+$=+%-$++===>=>+%%+++++++%%'''''%%++++%$@.................",
"..........................#+%==++++======%++++++++#*%+++%'''''%%+++++$@..............",
"...........................!++++%%=%>%++++++%+++++.....*++%'''''''++++++*&...........",
".............................#+++++++++;*++%+%++++.......&++'''''+%..@#*+++%$@.......",
".............................*++++++++,,*++++++++*.........+++%%++.......!;+++%;-....",
".............................+++++%+++,,+++$!&#*+$...#$&....;;+%&...........!*+++++$.",
"............................;+++++++++,#+@,,@,,,;&.%+++++@.....................&;%+$.",
"............................++++++++++,,,@+++++,,,+++%#%++$.......................!..",
"...........................&+++++++++*,,*+++++++&,+++%@#+++%.........................",
"...........................%+++%+++++$,%+++++++++!#+++++++++$........................",
"...........................++++++++++,;+++++++%++%,++++++++++........................",
".........................-+++++++++++*++++*@#*++++#;+++++++++;.......................",
"......................;%+++++++++++++++++%,,,,+++++!++++++++++.......................",
"...................$%+++++++++++++++++++++%&,%+++++,++&!,!!;++$......................",
".................&+++++++++++++%++%+++++++++%++++++!*%#*+%%;,+$......................",
".................++++++++++++++++++++++++++++++++++!;+++%*%+++@......................",
".................++%++%++++++++++++++++++++++++++++,*+**%*#!*%.......................",
".................++%%+++%++++++%++++++++++%+++++++*,+%,!#*++%........................",
".................#++++++++++%+++++%++++%+++++++++%,+%;++%;%+.........................",
"................$,*++%++%++++++%++%+++%++++%++++*!**%*++++++.........................",
"................%$,;++++++++%++%+++++++++++++++;,;+*+++++++++%%......................",
".................%%!,;%+++++++%++%++%++%+++++*,,*+...................................",
"...................+%;!!#*%+++++++++++++++*#!&*+++...................................",
"....................%%%+;!!!!##**%+%%%%*#!,!*+++++%%.................................",
".......................%>%%*;##!!!!!##!!!*++++++++++%................................",
"............................%%%%%%%%%%%%%*>..........................................",
"....................................................................................."};
