/* XPM */
static char * off_xpm[] = {
"16 35 96 2",
"  	c None",
". 	c #010000",
"+ 	c #20341C",
"@ 	c #7F9F79",
"# 	c #9FB79A",
"$ 	c #9DB799",
"% 	c #869E81",
"& 	c #383F37",
"* 	c #030202",
"= 	c #0A1A07",
"- 	c #A4BD9F",
"; 	c #C5C6C4",
"> 	c #B0BDAD",
", 	c #272926",
"' 	c #162214",
") 	c #BDC7BB",
"! 	c #C3C6C2",
"~ 	c #262825",
"{ 	c #060505",
"] 	c #B9C5B6",
"^ 	c #BDC3BC",
"/ 	c #5F8657",
"( 	c #6B7868",
"_ 	c #B4C3B1",
": 	c #B3BEB0",
"< 	c #090908",
"[ 	c #C2C5C1",
"} 	c #191818",
"| 	c #C0C5BF",
"1 	c #AABCA7",
"2 	c #A2B09F",
"3 	c #4F5D4C",
"4 	c #373B35",
"5 	c #A3B59E",
"6 	c #96A493",
"7 	c #A6B9A3",
"8 	c #A8B2A5",
"9 	c #6C7B69",
"0 	c #C1C5BF",
"a 	c #BEC4BD",
"b 	c #5F6A5D",
"c 	c #201F1F",
"d 	c #4F4F4E",
"e 	c #4A4A49",
"f 	c #121111",
"g 	c #252424",
"h 	c #313130",
"i 	c #131212",
"j 	c #524F4E",
"k 	c #BF7979",
"l 	c #E6575B",
"m 	c #E94B4F",
"n 	c #DE686B",
"o 	c #9B7878",
"p 	c #222121",
"q 	c #A37474",
"r 	c #F22B31",
"s 	c #FF0008",
"t 	c #FE030B",
"u 	c #E2575B",
"v 	c #494241",
"w 	c #916667",
"x 	c #FC0911",
"y 	c #EC3D42",
"z 	c #333030",
"A 	c #312A29",
"B 	c #F81920",
"C 	c #CF5558",
"D 	c #B0494C",
"E 	c #372C2B",
"F 	c #E62F34",
"G 	c #8F3C3E",
"H 	c #F5161C",
"I 	c #B13235",
"J 	c #F3151B",
"K 	c #AA2B2F",
"L 	c #DC1D23",
"M 	c #751A1C",
"N 	c #871417",
"O 	c #FD020A",
"P 	c #140001",
"Q 	c #100000",
"R 	c #F30810",
"S 	c #9C1015",
"T 	c #410203",
"U 	c #CF0C12",
"V 	c #0C0000",
"W 	c #480002",
"X 	c #E7080F",
"Y 	c #B3080D",
"Z 	c #680003",
"` 	c #B4050A",
" .	c #DF080E",
"..	c #D0090F",
"+.	c #990207",
"@.	c #400002",
". . . . . . . . . . . . . . . . ",
". . . . . . . . . . . . . . . . ",
". . . . . + @ # $ % & * . . . . ",
". . . = - ; ; ; ; ; ; > , . . . ",
". . ' ) ; ; ; ; ; ; ; ; ! ~ . . ",
". { ] ; ; ; ; ; ; ; ; ; ; ^ { . ",
". / ; ; ; ; ; ; ; ; ; ; ; ; ( . ",
". _ ; ; ; ; ; ; ; ; ; ; ; ; : . ",
"< ; ; ; ; ; ; ; ; ; ; ; ; ; [ . ",
"} ; ; ; ; ; ; ; ; ; ; ; ; ; ! . ",
"< ; ; ; ; ; ; ; ; ; ; ; ; ; | . ",
". 1 ; ; ; ; ; ; ; ; ; ; ; ; 2 . ",
". 3 ; ; ; ; ; ; ; ; ; ; ; ; 4 . ",
". * 5 ; ; ; ; ; ; ; ; ; ; 6 . . ",
". . < 7 ; ; ; ; ; ; ; ; 8 * . . ",
". . . * 9 0 ; ; ; ; a b . . . . ",
". . . . . . c d e f . . . . . . ",
". . . . . . . . . . . . . . . . ",
". . . . . . . . . . . . . . . . ",
". . . . . . g h h i . . . . . . ",
". . . * j k l m m n o p . . . . ",
". . { q r s s s s s t u v . . . ",
". . w x s s s s s s s s y z . . ",
". A B s s s s s s s s s s C . . ",
". D s s s s s s s s s s s x E . ",
". F s s s s s s s s s s s s G . ",
". H s s s s s s s s s s s s I . ",
". J s s s s s s s s s s s s K . ",
". L s s s s s s s s s s s s M . ",
". N s s s s s s s s s s s O P . ",
". Q R s s s s s s s s s s S . . ",
". . T O s s s s s s s s U V . . ",
". . . W X s s s s s s Y P . . . ",
". . . . V Z `  ...+.@.. . . . . ",
". . . . . . . . . . . . . . . . "};
