/* XPM */
static char * on_xpm[] = {
"16 29 171 2",
"  	c None",
". 	c #FFFFFF",
"+ 	c #D2FFC0",
"@ 	c #93FF68",
"# 	c #70FF38",
"$ 	c #65FF28",
"% 	c #81FF50",
"& 	c #B5FF98",
"* 	c #F7FFF4",
"= 	c #F1FFEC",
"- 	c #84FF54",
"; 	c #4AFF02",
"> 	c #4EFF08",
", 	c #4FFF0A",
"' 	c #51FF0A",
") 	c #56FF14",
"! 	c #63FF27",
"~ 	c #7CFF49",
"{ 	c #C3FFAC",
"] 	c #F5FFF2",
"^ 	c #73FF3C",
"/ 	c #4CFF05",
"( 	c #48FF00",
"_ 	c #49FF01",
": 	c #4BFF05",
"< 	c #55FF14",
"[ 	c #6EFF35",
"} 	c #C2FFAA",
"| 	c #9BFF74",
"1 	c #50FF0C",
"2 	c #4BFF04",
"3 	c #49FF02",
"4 	c #7BFF47",
"5 	c #F4FFF0",
"6 	c #59FF16",
"7 	c #4FFF09",
"8 	c #62FF24",
"9 	c #ACFF8C",
"0 	c #BCFFA2",
"a 	c #5DFF1F",
"b 	c #48FF01",
"c 	c #54FF12",
"d 	c #76FF40",
"e 	c #FBFFF9",
"f 	c #A4FF81",
"g 	c #5EFF1F",
"h 	c #4EFF09",
"i 	c #5FFF20",
"j 	c #F1FFEB",
"k 	c #A4FF82",
"l 	c #4DFF08",
"m 	c #EBFFE5",
"n 	c #B1FF94",
"o 	c #63FF26",
"p 	c #4AFF04",
"q 	c #54FF10",
"r 	c #EBFFE2",
"s 	c #CDFFBA",
"t 	c #6FFF37",
"u 	c #4FFF0B",
"v 	c #61FF23",
"w 	c #AAFF88",
"x 	c #EBFFE3",
"y 	c #E2FFD8",
"z 	c #9BFE74",
"A 	c #5EFE1E",
"B 	c #4BFE05",
"C 	c #48FE00",
"D 	c #49FE02",
"E 	c #54FE11",
"F 	c #78FE43",
"G 	c #EEFFE7",
"H 	c #EFFEEB",
"I 	c #D5FEC5",
"J 	c #82FE51",
"K 	c #5CFE1C",
"L 	c #4EFE08",
"M 	c #48FE01",
"N 	c #4AFE04",
"O 	c #54FE10",
"P 	c #69FE2F",
"Q 	c #B9FE9E",
"R 	c #F1FFEA",
"S 	c #F8FEF8",
"T 	c #EDFEE8",
"U 	c #D3FDC3",
"V 	c #8DFD61",
"W 	c #67FC2A",
"X 	c #59FC17",
"Y 	c #53FC0D",
"Z 	c #51FC0B",
"` 	c #55FC13",
" .	c #60FC21",
"..	c #75FD3F",
"+.	c #B7FD9A",
"@.	c #E7FEDE",
"#.	c #F5FFF1",
"$.	c #FCFEFC",
"%.	c #F9FDF8",
"&.	c #F0FCEA",
"*.	c #E0FBD2",
"=.	c #B7F896",
"-.	c #93F35F",
";.	c #7EEF3E",
">.	c #7CEF3B",
",.	c #87F24F",
"'.	c #A8F780",
").	c #D2FABF",
"!.	c #E9FCE0",
"~.	c #F7FDF3",
"{.	c #FDFFFB",
"].	c #FEFEFE",
"^.	c #FCFCFB",
"/.	c #FCF5F3",
"(.	c #F7E8DE",
"_.	c #ECC0AC",
":.	c #E47963",
"<.	c #E0543E",
"[.	c #DF5940",
"}.	c #E18B6E",
"|.	c #E8CDB2",
"1.	c #F3E5D7",
"2.	c #F9F3EE",
"3.	c #FCFBFA",
"4.	c #FEF7F7",
"5.	c #FBCBCB",
"6.	c #ED4443",
"7.	c #E40101",
"8.	c #E40000",
"9.	c #E60807",
"0.	c #F46665",
"a.	c #FCD6D5",
"b.	c #FEEFEF",
"c.	c #FDF0F0",
"d.	c #E81616",
"e.	c #F22E2E",
"f.	c #FFFCFC",
"g.	c #EB2C2C",
"h.	c #F65050",
"i.	c #F6A1A1",
"j.	c #E60000",
"k.	c #FECACA",
"l.	c #ED3535",
"m.	c #F74C4C",
"n.	c #E70C0C",
"o.	c #F21717",
"p.	c #E70808",
"q.	c #F11010",
"r.	c #E80F0F",
"s.	c #F31616",
"t.	c #EF3737",
"u.	c #F94C4C",
"v.	c #FAB6B6",
"w.	c #E90000",
"x.	c #FFC8C8",
"y.	c #F03838",
"z.	c #E50000",
"A.	c #FA4E4E",
"B.	c #FEF9F9",
"C.	c #ED1C1C",
"D.	c #F73535",
"E.	c #FFF8F8",
"F.	c #F65959",
"G.	c #E90202",
"H.	c #ED0404",
"I.	c #FB7373",
"J.	c #FFF4F4",
"K.	c #FC9F9F",
"L.	c #F86060",
"M.	c #F96666",
"N.	c #FEA7A7",
". . . . . + @ # $ % & * . . . . ",
". . . = - ; > , ' ) ! ~ { ] . . ",
". . * ^ > / ( ( ( _ : < [ } . . ",
". . | 1 2 ( ( ( ( ( ( 3 < 4 5 . ",
". = 6 7 ( ( ( ( ( ( ( ( : 8 9 . ",
". 0 a ; ( ( ( ( ( ( ( ( b c d . ",
"e f g 3 ( ( ( ( ( ( ( ( ( h i . ",
"j k g ; ( ( ( ( ( ( ( ( ( l i . ",
"m n o p ( ( ( ( ( ( ( ( b q # . ",
"r s t u ( ( ( ( ( ( ( ( p v w . ",
"x y z A B C C C C C C D E F = . ",
"G H I J K L D C C M N O P Q . . ",
"R S T U V W X Y Z `  ...+.@.. . ",
"#.$.%.&.*.=.-.;.>.,.'.).!.~.. . ",
"{.].^./.(._.:.<.[.}.|.1.2.3.. . ",
". . 4.5.6.7.8.8.8.8.9.0.a.b.. . ",
". . c.d.8.8.8.8.8.8.8.8.e.f.. . ",
". . g.8.8.8.8.8.8.8.8.8.8.h.. . ",
". i.8.8.8.8.8.8.8.8.8.8.8.j.k.. ",
". l.8.8.8.8.8.8.8.8.8.8.8.8.m.. ",
". n.8.8.8.8.8.8.8.8.8.8.8.8.o.. ",
". p.8.8.8.8.8.8.8.8.8.8.8.8.q.. ",
". r.8.8.8.8.8.8.8.8.8.8.8.8.s.. ",
". t.8.8.8.8.8.8.8.8.8.8.8.8.u.. ",
". v.8.8.8.8.8.8.8.8.8.8.8.w.x.. ",
". . y.8.8.8.8.8.8.8.8.8.z.A.. . ",
". . B.C.8.8.8.8.8.8.8.z.D.E.. . ",
". . . f.F.G.8.8.8.8.H.I.f.. . . ",
". . . . . J.K.L.M.N.J.. . . . . "};
